<?xml version="1.0" encoding="UTF-8"?>
<svg xmlns="http://www.w3.org/2000/svg" viewBox="0 0 2750 2750" width="2750" height="2750">
  <g transform="translate(329.5452,147.3429)">
    <g transform="translate(-954.904430,3284.102406) scale(0.100000,-0.100000)" fill="#408C9B" stroke="none">
<path d="M19900 32816 c-127 -44 -230 -97 -315 -160 -38 -29 -119 -81 -180
-116 -60 -35 -135 -80 -165 -100 -30 -20 -109 -65 -175 -100 -66 -34 -151 -84
-190 -110 -101 -68 -225 -140 -342 -199 -56 -28 -151 -83 -210 -122 -59 -39
-139 -87 -178 -106 -38 -20 -101 -57 -140 -83 -38 -26 -119 -76 -180 -110 -60
-35 -138 -83 -173 -106 -34 -24 -88 -52 -118 -64 -83 -31 -110 -46 -213 -122
-52 -38 -126 -84 -165 -102 -39 -18 -114 -60 -166 -93 -52 -33 -129 -77 -170
-98 -41 -20 -112 -62 -158 -92 -46 -29 -125 -74 -175 -100 -51 -25 -139 -76
-197 -113 -58 -37 -145 -90 -195 -118 -49 -28 -117 -69 -150 -92 -74 -50 -188
-115 -320 -182 -55 -28 -140 -79 -190 -113 -49 -34 -135 -86 -190 -115 -55
-29 -129 -74 -165 -100 -36 -26 -123 -78 -195 -115 -71 -38 -153 -85 -181
-105 -27 -21 -75 -50 -105 -65 -29 -15 -117 -67 -194 -115 -77 -48 -174 -104
-215 -125 -113 -56 -346 -195 -578 -343 -114 -74 -247 -154 -297 -179 -49 -25
-144 -78 -210 -118 -66 -40 -154 -89 -195 -110 -41 -21 -106 -57 -143 -81 -38
-25 -103 -62 -145 -83 -77 -39 -193 -110 -459 -281 -78 -50 -175 -107 -215
-127 -72 -35 -187 -103 -436 -257 -70 -43 -183 -110 -252 -148 -146 -81 -221
-127 -368 -223 -59 -39 -154 -94 -212 -122 -58 -28 -138 -76 -178 -107 -40
-30 -100 -65 -134 -77 -34 -13 -104 -52 -157 -87 -53 -35 -141 -87 -196 -114
-55 -28 -123 -67 -150 -88 -28 -20 -76 -52 -107 -69 -111 -63 -146 -124 -160
-281 -5 -58 -14 -154 -20 -215 -8 -79 -14 -1728 -19 -5835 -5 -3149 -9 -5761
-10 -5805 -3 -232 118 -430 330 -539 70 -37 151 -84 179 -105 29 -21 111 -69
183 -107 72 -38 161 -92 197 -120 37 -27 126 -81 197 -118 72 -38 148 -81 170
-96 22 -15 87 -50 145 -77 58 -28 136 -75 174 -106 38 -30 104 -72 145 -92 42
-20 130 -72 196 -114 109 -71 171 -106 495 -282 58 -31 149 -85 202 -120 241
-159 284 -185 361 -224 45 -23 123 -68 172 -101 50 -34 126 -81 170 -105 44
-24 124 -71 177 -106 53 -34 137 -80 185 -101 48 -21 122 -60 163 -88 41 -28
116 -72 165 -98 50 -27 119 -70 155 -96 36 -26 115 -74 175 -105 61 -32 137
-77 170 -100 33 -23 87 -57 120 -75 33 -18 92 -54 130 -80 39 -26 120 -73 180
-105 61 -32 135 -75 166 -96 30 -20 95 -57 145 -81 49 -25 118 -65 152 -91 35
-25 126 -78 202 -117 77 -39 186 -101 242 -139 57 -38 128 -81 158 -96 30 -15
89 -49 130 -75 41 -26 111 -66 155 -90 44 -23 114 -66 155 -95 41 -29 114 -71
162 -93 48 -22 115 -60 150 -84 35 -25 110 -70 168 -100 58 -30 137 -75 175
-100 39 -25 120 -71 180 -103 101 -54 270 -160 370 -233 53 -39 301 -177 395
-220 41 -19 135 -75 209 -124 73 -50 195 -121 270 -159 75 -37 162 -88 193
-111 87 -65 257 -168 472 -285 54 -29 135 -78 180 -107 45 -29 122 -74 173
-99 50 -26 129 -72 174 -103 46 -31 142 -89 214 -129 71 -40 173 -98 225 -129
294 -175 380 -168 732 63 57 37 152 93 212 125 61 32 151 84 201 116 50 33
122 74 160 91 39 17 129 70 200 117 72 48 176 110 231 138 56 29 156 88 221
132 66 44 166 104 224 132 57 29 131 72 165 95 33 24 116 74 185 112 68 38
154 89 189 114 36 24 85 53 110 64 97 42 323 174 495 288 99 66 212 135 250
152 39 18 97 50 130 70 32 21 106 65 164 98 58 33 144 86 191 117 47 31 108
69 137 84 29 14 90 50 135 80 46 29 133 78 193 109 147 74 271 146 380 222 49
34 153 94 230 132 169 85 240 127 498 294 56 37 147 91 202 120 55 29 129 73
165 98 35 25 111 69 168 98 57 29 134 75 171 101 36 27 89 62 116 77 28 16 76
46 107 67 32 21 100 58 152 82 52 24 120 63 151 87 32 24 132 82 224 129 166
86 278 153 479 286 59 38 152 94 207 123 55 30 123 70 151 91 27 21 77 51 110
68 84 42 213 120 254 152 19 15 91 57 160 92 294 153 392 208 471 265 46 34
109 73 138 88 30 15 89 49 130 75 42 26 141 84 221 129 80 46 179 104 220 131
105 66 287 173 340 200 25 13 99 56 165 96 66 40 167 95 225 123 188 91 349
242 385 362 22 78 23 12117 0 12195 -26 89 -221 249 -372 305 -41 15 -111 52
-156 82 -45 30 -127 79 -182 108 -55 29 -129 74 -165 99 -36 26 -111 71 -167
99 -56 28 -144 80 -196 115 -52 35 -119 77 -148 91 -30 15 -100 58 -156 96
-55 37 -141 86 -190 107 -49 21 -118 58 -153 83 -36 25 -87 58 -115 74 -27 15
-97 58 -155 95 -58 37 -133 81 -167 98 -78 40 -380 217 -458 270 -33 22 -125
78 -205 123 -80 45 -165 97 -190 115 -26 18 -97 58 -159 89 -63 31 -147 79
-188 106 -41 28 -111 68 -156 88 -45 21 -111 58 -147 83 -36 25 -109 68 -162
96 -53 28 -139 80 -191 114 -52 35 -123 81 -158 103 -35 22 -95 60 -134 84
-38 24 -123 72 -188 107 -65 34 -162 90 -215 124 -105 67 -209 129 -371 222
-57 33 -142 84 -188 114 -47 30 -120 72 -163 94 -44 22 -121 67 -172 101 -51
34 -138 84 -193 111 -55 28 -127 70 -160 93 -33 24 -103 64 -155 90 -52 26
-135 74 -185 106 -49 32 -131 79 -181 106 -49 26 -128 72 -175 102 -179 114
-560 338 -689 405 -75 39 -162 92 -195 117 -76 58 -149 100 -305 176 -69 33
-190 104 -270 157 -80 54 -188 118 -240 143 -52 25 -126 70 -163 99 -38 29
-122 81 -188 114 -66 33 -153 82 -192 108 -40 27 -119 74 -177 106 -58 32
-126 74 -151 92 -25 19 -94 56 -153 84 -115 53 -264 143 -416 250 -288 204
-421 246 -590 186z m196 -1017 c22 -17 80 -84 129 -149 50 -65 129 -170 176
-232 48 -62 129 -174 181 -248 159 -227 349 -481 410 -550 32 -36 86 -105 120
-155 34 -49 74 -105 89 -123 16 -17 51 -66 79 -107 28 -42 79 -111 114 -153
34 -42 77 -99 96 -127 18 -27 57 -79 86 -115 28 -36 76 -101 104 -145 29 -44
81 -114 115 -155 35 -42 90 -116 123 -166 32 -49 86 -121 119 -159 198 -231
257 -352 170 -349 -43 1 -216 82 -304 142 -32 22 -101 63 -153 92 -52 29 -133
76 -180 104 -148 91 -329 191 -530 293 -107 55 -226 120 -265 145 -38 25 -155
90 -260 143 -104 54 -216 116 -248 138 -181 121 -275 121 -472 1 -203 -125
-327 -193 -775 -428 -75 -39 -172 -97 -217 -129 -46 -32 -111 -71 -147 -87
-35 -16 -88 -44 -117 -61 -30 -18 -126 -70 -214 -117 -88 -47 -196 -104 -240
-128 -166 -88 -265 -118 -265 -78 0 26 136 241 205 324 63 76 134 174 222 307
27 40 62 93 78 118 17 24 66 84 110 133 44 49 125 155 180 236 55 81 127 184
160 229 33 44 86 117 119 161 59 82 121 155 233 278 34 37 83 103 108 145 26
43 79 118 117 168 119 155 328 445 406 565 167 256 246 312 338 239z m1444
-563 c36 -23 108 -67 160 -96 52 -30 127 -75 165 -101 109 -73 484 -293 650
-382 83 -44 184 -104 225 -132 41 -29 120 -78 175 -110 55 -32 118 -71 140
-85 22 -15 107 -64 188 -109 82 -44 176 -101 210 -125 34 -24 105 -64 157 -90
52 -25 122 -66 155 -91 33 -25 121 -78 195 -117 74 -39 173 -96 220 -128 100
-66 212 -131 330 -190 47 -24 110 -59 140 -80 30 -20 105 -65 165 -100 61 -35
144 -87 185 -115 41 -28 127 -79 191 -113 64 -34 151 -82 193 -107 42 -25 109
-62 149 -81 40 -20 97 -53 127 -74 30 -20 102 -61 160 -91 58 -29 146 -81 196
-115 49 -34 137 -88 195 -120 57 -31 131 -78 163 -102 33 -25 114 -73 180
-107 67 -33 148 -79 181 -101 87 -59 235 -144 350 -202 90 -45 319 -178 480
-278 33 -21 130 -78 215 -127 85 -49 182 -109 215 -132 33 -23 76 -50 95 -60
19 -9 109 -61 200 -115 91 -54 197 -116 236 -139 70 -40 134 -99 134 -125 0
-58 -191 -73 -325 -26 -70 25 -70 25 -770 30 -679 6 -703 7 -799 29 -136 30
-284 42 -676 51 -302 6 -342 9 -410 29 -54 16 -119 24 -235 30 -201 11 -316
51 -556 196 -50 31 -128 74 -172 97 -45 22 -106 56 -134 74 -29 19 -83 49
-120 68 -38 19 -93 53 -123 76 -30 22 -112 70 -183 106 -249 127 -362 215
-431 339 -17 30 -79 108 -137 173 -59 65 -118 141 -133 170 -14 28 -45 75 -69
104 -23 29 -69 89 -101 133 -33 44 -82 107 -111 140 -28 33 -75 95 -103 137
-29 43 -80 110 -113 150 -34 40 -70 90 -80 110 -10 20 -48 72 -84 115 -37 43
-95 121 -129 173 -35 52 -84 120 -110 150 -27 30 -65 80 -86 110 -20 30 -57
78 -82 105 -24 28 -55 66 -68 85 -13 19 -44 60 -70 90 -26 30 -70 89 -98 130
-29 41 -70 97 -92 123 -22 27 -56 76 -76 109 -41 71 -111 164 -172 229 -23 26
-66 81 -95 122 -28 42 -84 122 -123 179 -40 57 -95 130 -124 163 -143 162 -98
252 70 141z m-2900 -3 c0 -44 -42 -123 -105 -197 -74 -86 -215 -272 -302 -396
-37 -52 -89 -124 -117 -159 -28 -36 -69 -90 -91 -122 -38 -55 -69 -95 -305
-413 -58 -77 -121 -163 -140 -191 -18 -27 -72 -97 -119 -154 -47 -57 -108
-139 -136 -182 -53 -83 -245 -339 -302 -402 -19 -22 -60 -78 -90 -125 -31 -48
-75 -109 -98 -137 -23 -27 -61 -79 -85 -115 -24 -36 -69 -96 -101 -135 -31
-38 -78 -104 -104 -145 -26 -41 -70 -100 -98 -130 -28 -30 -74 -91 -103 -135
-75 -116 -189 -207 -374 -300 -41 -21 -120 -63 -175 -95 -55 -32 -138 -77
-185 -100 -47 -23 -119 -66 -160 -95 -41 -28 -127 -80 -190 -115 -63 -34 -141
-81 -173 -103 -32 -22 -101 -56 -155 -75 -53 -19 -119 -43 -147 -53 -42 -15
-80 -18 -231 -19 -164 0 -191 -3 -280 -27 -91 -24 -121 -27 -379 -34 -434 -12
-569 -23 -645 -50 -64 -23 -71 -23 -705 -29 -630 -7 -702 -11 -845 -44 -141
-34 -292 -15 -298 37 -6 51 141 165 315 244 80 37 224 125 308 188 39 30 104
69 147 88 42 19 117 64 166 99 49 36 131 86 183 113 52 26 122 67 156 92 34
24 126 75 205 115 79 39 170 90 204 114 33 23 112 70 175 105 62 34 208 119
324 189 115 69 293 175 395 234 102 60 224 134 271 166 47 32 131 82 185 111
166 88 363 199 479 269 61 37 146 86 190 108 44 22 112 63 150 91 39 29 128
81 198 117 71 36 159 87 195 114 37 27 117 74 177 106 61 32 137 76 170 100
33 23 101 63 150 89 50 27 126 74 170 105 44 31 103 69 130 85 28 15 71 43 96
61 25 19 94 56 153 83 58 28 137 70 175 95 39 25 105 64 148 87 43 24 125 74
183 112 58 38 173 102 255 142 83 40 179 94 214 120 35 26 98 67 139 91 42 25
92 58 111 73 20 16 88 53 151 84 63 30 149 79 190 110 149 111 380 196 380
140z m1591 -2054 c52 -31 127 -76 168 -99 40 -23 121 -73 179 -111 58 -37 132
-78 166 -89 34 -11 77 -30 98 -43 20 -12 76 -46 125 -76 48 -30 144 -84 213
-119 69 -36 157 -87 195 -112 39 -26 147 -87 240 -135 94 -49 224 -123 290
-165 142 -92 159 -100 248 -130 43 -14 93 -41 134 -72 56 -43 248 -148 271
-148 5 0 50 -27 101 -60 52 -32 110 -65 130 -71 57 -19 103 -44 187 -105 43
-30 121 -76 174 -102 52 -25 121 -63 153 -84 90 -61 257 -153 401 -223 73 -35
175 -92 227 -128 52 -35 146 -90 209 -122 63 -32 149 -79 190 -106 42 -27 103
-60 135 -75 167 -73 325 -191 352 -263 28 -72 28 -2771 0 -2843 -28 -73 -225
-227 -407 -318 -47 -23 -163 -95 -258 -159 -95 -64 -221 -144 -280 -178 -59
-34 -168 -101 -242 -149 -250 -162 -284 -172 -325 -89 -20 39 -20 67 -26 1160
-5 756 -10 1143 -18 1190 -6 39 -15 147 -19 240 -6 132 -12 179 -27 210 -25
54 -178 203 -246 239 -30 16 -83 50 -119 76 -79 58 -296 183 -590 340 -85 45
-198 106 -250 135 -52 29 -125 66 -161 83 -37 16 -94 48 -127 70 -32 23 -106
66 -162 97 -56 31 -128 73 -159 94 -31 21 -99 60 -151 86 -52 26 -126 68 -165
93 -38 25 -112 64 -163 88 -51 24 -134 69 -185 100 -50 32 -132 76 -182 99
-49 23 -120 63 -156 88 -274 192 -500 191 -754 -4 -28 -21 -86 -54 -128 -74
-43 -19 -106 -54 -140 -77 -34 -23 -136 -81 -227 -129 -91 -47 -262 -142 -381
-211 -119 -69 -263 -147 -321 -175 -58 -28 -140 -73 -184 -100 -106 -68 -357
-209 -474 -268 -52 -26 -129 -70 -171 -97 -42 -26 -116 -64 -163 -82 -52 -21
-125 -61 -184 -103 -53 -37 -133 -90 -177 -118 -230 -142 -268 -215 -277 -535
-4 -135 -12 -265 -19 -290 -10 -42 -30 -839 -30 -1232 -1 -321 -1 -499 -2
-628 -2 -221 76 -461 183 -569 86 -85 353 -247 640 -387 74 -37 203 -108 285
-159 147 -90 329 -192 451 -253 34 -17 95 -55 137 -85 42 -30 126 -80 187
-112 61 -31 139 -76 173 -99 34 -24 168 -99 297 -166 129 -68 281 -153 337
-189 132 -86 477 -288 572 -336 40 -20 103 -56 140 -80 36 -24 106 -61 154
-81 49 -20 148 -75 221 -123 72 -47 169 -106 214 -131 46 -25 109 -60 140 -79
74 -45 206 -117 362 -199 69 -36 161 -91 205 -123 44 -31 128 -82 187 -112 59
-31 131 -73 160 -95 29 -21 121 -74 203 -117 222 -114 377 -200 500 -275 61
-37 148 -87 195 -110 47 -24 137 -75 200 -115 63 -39 136 -85 162 -101 26 -16
71 -45 100 -65 29 -19 78 -46 109 -58 115 -45 135 -96 133 -336 -1 -88 -1
-220 -1 -292 -1 -1730 -11 -2377 -38 -2421 -21 -35 -104 -95 -250 -182 -99
-59 -413 -270 -485 -325 -25 -19 -67 -42 -95 -51 -71 -24 -117 -48 -219 -117
-49 -33 -128 -78 -174 -99 -85 -39 -286 -167 -397 -253 -33 -25 -103 -67 -155
-92 -52 -25 -131 -72 -175 -103 -44 -32 -123 -79 -175 -105 -52 -26 -126 -69
-165 -94 -38 -26 -101 -64 -140 -85 -38 -21 -171 -106 -294 -188 -124 -82
-273 -174 -333 -204 -59 -30 -137 -74 -173 -99 -106 -72 -146 -69 -282 22 -32
22 -80 52 -108 68 -27 15 -104 63 -170 105 -138 89 -504 305 -585 345 -30 15
-134 78 -230 140 -96 62 -238 148 -316 192 -77 44 -209 128 -293 187 -84 59
-198 132 -254 163 -56 30 -124 71 -152 90 -27 19 -71 50 -98 68 -26 19 -73 41
-104 50 -74 22 -95 33 -190 101 -43 31 -121 81 -173 112 -122 71 -522 337
-545 362 -39 43 -44 85 -45 362 0 299 5 329 63 364 38 22 769 27 1555 10 324
-7 448 -6 575 4 134 11 392 12 1496 3 1440 -12 1399 -13 1448 39 40 42 43 69
23 155 -13 52 -20 114 -20 184 0 179 -39 255 -161 320 -68 36 -70 44 -29 100
45 62 46 92 11 195 -17 49 -35 113 -41 143 -6 30 -41 123 -78 205 -38 83 -75
166 -82 184 -16 42 -96 114 -207 187 -48 32 -126 84 -173 115 -47 31 -148 88
-225 125 -158 77 -280 147 -438 248 -60 38 -174 104 -255 147 -162 86 -235
130 -394 237 -59 40 -140 89 -180 109 -40 20 -118 65 -173 99 -111 70 -169
100 -227 121 -43 15 -267 138 -386 213 -42 26 -117 69 -167 96 -49 26 -145 86
-213 132 -68 47 -164 104 -215 128 -51 23 -116 59 -146 79 -30 20 -87 52 -127
71 -40 18 -115 60 -166 93 -51 34 -136 81 -188 105 -52 24 -124 64 -160 89
-36 25 -109 68 -162 96 -53 28 -140 81 -193 117 -53 36 -142 88 -198 116 -56
28 -122 66 -147 84 -25 18 -74 47 -110 65 -36 18 -122 68 -192 112 -70 44
-162 94 -206 112 -43 18 -103 51 -133 73 -30 23 -97 62 -149 88 -102 51 -372
209 -483 282 -136 91 -122 -194 -125 2453 -2 1785 0 2325 9 2360 20 71 113
155 252 226 61 31 144 76 183 100 39 23 114 63 166 87 52 24 122 62 154 84 32
22 114 70 182 107 68 36 139 78 157 92 18 14 82 49 142 78 59 30 172 91 250
137 351 206 466 271 540 303 44 19 125 61 179 93 55 33 135 79 179 103 44 23
103 59 130 80 65 48 83 57 169 86 39 14 108 49 153 80 45 30 124 74 175 98 99
46 376 204 469 267 31 21 110 64 175 96 66 32 146 77 179 99 88 59 160 98 253
138 46 19 115 55 155 79 40 25 128 75 197 112 69 37 141 81 161 96 119 93 252
96 400 8z m38 -2585 c96 -47 209 -109 250 -138 42 -29 110 -68 151 -88 42 -19
120 -62 175 -95 55 -33 127 -72 160 -87 33 -15 98 -52 145 -82 101 -66 352
-206 502 -280 59 -29 129 -69 155 -88 83 -59 262 -161 438 -249 191 -97 319
-188 351 -253 19 -39 37 -2321 19 -2423 -19 -102 -154 -95 -316 17 -59 40
-233 144 -289 172 -25 12 -95 53 -157 91 -61 37 -163 94 -225 125 -62 31 -147
80 -188 109 -41 29 -100 65 -129 80 -30 15 -89 49 -131 75 -42 27 -110 65
-151 85 -41 21 -135 72 -209 115 -74 42 -214 121 -310 174 -96 54 -200 113
-230 131 -379 226 -480 207 -488 -93 -11 -371 41 -473 288 -577 44 -19 112
-56 152 -83 40 -27 123 -75 183 -107 61 -32 139 -77 175 -98 36 -22 103 -57
149 -79 46 -21 112 -58 145 -82 34 -24 97 -62 141 -86 44 -24 139 -78 210
-121 72 -43 235 -134 363 -203 128 -68 257 -143 285 -164 29 -22 108 -68 177
-102 68 -34 165 -88 215 -119 49 -32 178 -104 285 -161 289 -152 308 -163 421
-238 122 -80 238 -146 484 -275 202 -106 393 -215 535 -306 53 -33 126 -74
164 -91 38 -17 101 -51 140 -74 39 -24 114 -65 166 -91 52 -26 129 -70 170
-98 41 -28 131 -80 200 -115 69 -35 149 -82 179 -104 29 -22 88 -56 130 -76
42 -19 108 -56 146 -82 39 -26 122 -73 185 -105 123 -61 152 -83 178 -130 17
-30 21 -379 32 -2820 3 -788 -15 -1464 -40 -1535 -23 -62 -24 -80 -30 -420 -6
-389 -9 -408 -82 -516 -33 -49 -207 -182 -313 -239 -49 -27 -137 -79 -195
-115 -58 -37 -152 -91 -210 -120 -58 -29 -141 -78 -185 -110 -44 -32 -125 -84
-180 -115 -55 -32 -125 -75 -155 -95 -30 -20 -122 -74 -205 -120 -82 -46 -222
-127 -310 -180 -88 -54 -180 -107 -205 -120 -25 -12 -101 -60 -170 -105 -69
-45 -163 -104 -210 -130 -47 -27 -164 -99 -260 -160 -96 -62 -222 -138 -280
-170 -58 -32 -130 -75 -160 -95 -70 -49 -375 -226 -460 -267 -36 -18 -108 -61
-160 -97 -52 -36 -148 -93 -213 -127 -65 -34 -154 -88 -197 -120 -43 -32 -101
-70 -129 -84 -28 -14 -88 -49 -133 -79 -46 -29 -117 -70 -158 -91 -41 -20
-111 -63 -155 -95 -44 -31 -120 -78 -170 -102 -49 -25 -135 -75 -190 -111 -89
-58 -230 -138 -404 -229 -97 -51 -220 -33 -333 47 -35 24 -106 70 -158 101
-52 31 -131 83 -175 114 -44 31 -116 76 -160 100 -44 24 -118 68 -165 98 -47
30 -121 72 -165 93 -44 21 -105 56 -135 79 -30 23 -109 69 -175 102 -66 33
-151 83 -190 110 -219 154 -453 298 -687 424 -67 37 -161 91 -207 121 -46 30
-124 74 -174 99 -49 24 -125 69 -168 99 -44 31 -132 86 -196 124 -202 117
-453 265 -583 346 -290 178 -436 265 -620 371 -74 42 -178 105 -230 139 -52
34 -133 84 -180 110 -47 26 -115 69 -151 96 -36 27 -124 79 -195 117 -336 179
-560 335 -605 422 -18 35 -28 200 -38 600 -8 303 -11 357 -31 440 -20 85 -41
409 -42 633 0 48 24 85 69 104 36 14 63 14 1053 2 30 0 120 1 200 3 278 6 264
37 270 -562 6 -541 1 -510 97 -626 65 -77 153 -144 268 -201 50 -25 121 -65
158 -89 38 -25 104 -62 147 -84 44 -22 121 -67 172 -101 51 -34 138 -84 193
-111 55 -28 120 -67 145 -87 68 -56 227 -155 395 -244 83 -44 173 -97 200
-118 28 -20 97 -63 155 -95 58 -32 146 -85 196 -118 51 -34 114 -73 140 -89
27 -15 99 -61 159 -103 61 -41 137 -89 170 -106 33 -17 78 -43 100 -58 22 -14
72 -44 110 -65 39 -21 120 -70 180 -108 61 -39 160 -97 220 -130 61 -32 139
-80 175 -106 36 -26 92 -62 125 -81 33 -18 81 -48 107 -67 153 -110 378 -215
464 -217 77 -1 242 76 380 179 48 36 117 82 153 101 36 19 102 61 146 94 44
33 130 84 190 114 61 29 146 80 190 112 84 63 153 105 350 214 66 36 163 96
215 132 52 36 133 84 179 107 47 23 107 58 135 78 74 53 361 225 499 299 65
35 153 88 196 117 42 30 101 67 131 82 30 15 82 47 115 70 62 45 297 188 423
259 40 23 126 74 190 115 64 41 154 96 199 123 192 113 263 189 329 348 61
148 62 3392 1 3535 -69 161 -168 252 -393 361 -62 30 -140 75 -173 99 -33 25
-116 72 -183 106 -68 34 -149 80 -182 102 -32 22 -96 57 -143 78 -46 22 -113
61 -147 88 -35 26 -119 76 -187 111 -68 35 -137 72 -154 84 -16 12 -90 53
-165 92 -284 148 -428 229 -505 285 -44 31 -138 88 -210 127 -163 87 -427 244
-478 284 -21 17 -127 75 -235 129 -219 110 -359 187 -406 223 -18 13 -97 60
-176 103 -322 178 -467 261 -515 294 -27 20 -99 61 -159 93 -59 31 -136 76
-170 100 -33 23 -115 71 -180 105 -66 35 -148 81 -183 103 -34 22 -98 54 -140
72 -43 18 -121 59 -173 92 -52 33 -131 80 -175 104 -44 24 -111 64 -150 90
-38 25 -113 70 -165 100 -52 29 -131 76 -175 105 -44 28 -132 77 -195 107 -63
31 -146 79 -183 108 -37 28 -105 68 -151 90 -91 42 -118 69 -136 141 -20 81
-9 2067 12 2104 43 78 176 174 377 272 86 42 219 116 296 163 77 48 187 109
245 137 58 28 155 81 215 118 61 37 130 76 154 87 24 10 72 38 106 62 33 23
124 76 201 116 76 40 162 89 189 110 63 46 83 57 153 81 30 11 89 40 131 66
77 48 386 209 431 224 54 18 113 0 289 -87z m-5829 -212 c56 -57 55 -30 55
-1142 0 -1107 1 -1081 -52 -1101 -46 -17 -104 7 -203 85 -36 28 -103 71 -149
96 -46 25 -118 68 -160 96 -42 28 -106 67 -141 88 -36 21 -92 60 -125 86 -80
63 -134 96 -198 121 -28 11 -96 48 -149 82 -190 121 -585 382 -624 414 -23 18
-85 52 -138 77 -53 25 -145 79 -204 119 -59 40 -148 97 -197 126 -90 53 -226
139 -376 239 -43 29 -121 77 -172 106 -154 89 -385 244 -397 267 -40 74 6 93
240 100 168 5 204 9 260 29 60 21 89 23 370 31 429 11 579 22 670 50 74 22 87
23 760 29 405 5 701 12 725 18 87 22 174 15 205 -16z m11301 17 c33 -6 339
-14 794 -19 708 -7 743 -9 820 -29 117 -31 260 -42 640 -50 318 -7 344 -9 405
-30 50 -18 98 -25 210 -30 251 -12 264 -52 63 -197 -184 -133 -254 -179 -363
-239 -144 -80 -283 -169 -355 -225 -33 -26 -101 -68 -151 -94 -50 -25 -122
-69 -160 -96 -38 -27 -100 -68 -139 -91 -38 -23 -124 -77 -190 -119 -66 -42
-142 -90 -170 -105 -27 -16 -88 -54 -135 -86 -47 -31 -130 -83 -185 -116 -213
-127 -264 -158 -375 -233 -63 -42 -162 -103 -220 -134 -58 -32 -112 -64 -120
-71 -8 -7 -56 -38 -106 -68 -51 -30 -126 -81 -168 -112 -175 -129 -272 -137
-290 -24 -24 158 -31 2026 -7 2093 29 82 77 100 202 75z m-14855 -877 c49 -32
125 -79 170 -104 45 -26 124 -75 176 -110 52 -35 179 -115 282 -178 103 -63
228 -144 277 -180 48 -36 135 -90 191 -119 57 -30 144 -80 193 -112 50 -32
135 -87 190 -122 55 -36 138 -86 185 -112 80 -44 173 -104 370 -235 47 -31
139 -89 205 -127 66 -39 174 -105 240 -148 66 -42 143 -88 170 -102 28 -14 82
-47 120 -73 190 -129 339 -222 430 -269 54 -29 117 -67 140 -84 22 -18 70 -54
106 -80 70 -49 113 -93 132 -136 9 -19 13 -254 17 -826 5 -800 5 -800 37 -868
58 -122 218 -261 433 -377 63 -34 120 -66 125 -70 6 -4 62 -36 125 -70 63 -34
165 -94 225 -134 61 -40 133 -88 162 -105 197 -122 193 -159 -76 -564 -41 -62
-94 -154 -118 -205 -27 -60 -68 -123 -112 -177 -46 -56 -79 -109 -101 -161
-18 -43 -49 -105 -70 -139 -20 -33 -51 -86 -69 -118 -18 -32 -61 -96 -96 -143
-35 -46 -85 -126 -110 -179 -25 -52 -72 -131 -105 -176 -33 -44 -79 -119 -102
-167 -24 -48 -70 -128 -103 -179 -33 -50 -107 -171 -165 -267 -89 -149 -164
-269 -292 -465 -32 -48 -77 -68 -114 -50 -33 16 -161 253 -210 389 -15 41 -50
129 -77 195 -78 189 -117 285 -142 355 -13 36 -48 117 -78 180 -30 63 -60 135
-67 159 -15 55 -84 212 -152 346 -28 54 -59 131 -69 170 -9 39 -36 111 -59
161 -40 84 -66 147 -161 387 -22 56 -58 134 -79 172 -22 39 -60 132 -85 207
-25 76 -70 192 -101 260 -30 67 -70 165 -89 218 -18 52 -54 140 -80 195 -57
123 -135 310 -135 325 0 7 -26 69 -59 138 -32 70 -69 159 -81 197 -30 92 -79
198 -139 304 -27 47 -58 118 -69 157 -27 98 -102 294 -161 421 -27 60 -57 135
-66 168 -9 33 -38 101 -65 150 -26 50 -66 142 -89 205 -23 63 -76 183 -116
265 -41 84 -79 175 -85 208 -6 32 -41 117 -77 190 -78 157 -97 205 -130 317
-13 47 -49 131 -79 186 -29 56 -61 130 -70 165 -39 157 -96 305 -141 373 -28
42 -56 101 -73 155 -15 47 -45 122 -67 166 -147 293 -118 379 83 247z m18414
28 c37 -37 20 -94 -100 -347 -33 -70 -67 -154 -76 -187 -8 -32 -37 -102 -63
-155 -73 -145 -146 -317 -171 -401 -12 -41 -44 -121 -70 -177 -26 -56 -54
-119 -60 -140 -7 -21 -52 -132 -100 -248 -49 -115 -96 -237 -105 -270 -21 -73
-75 -202 -148 -355 -30 -63 -62 -137 -70 -165 -8 -27 -49 -126 -92 -220 -43
-93 -92 -208 -111 -255 -18 -47 -56 -137 -84 -200 -28 -63 -58 -144 -66 -180
-9 -36 -40 -112 -71 -170 -53 -101 -153 -337 -153 -362 0 -7 -29 -73 -64 -148
-35 -74 -70 -162 -77 -195 -8 -35 -53 -140 -106 -248 -58 -118 -101 -218 -113
-269 -12 -47 -50 -139 -91 -220 -38 -77 -83 -179 -99 -227 -17 -49 -53 -140
-81 -202 -28 -63 -71 -172 -96 -244 -25 -71 -76 -195 -113 -275 -45 -95 -73
-167 -80 -210 -8 -45 -40 -127 -105 -267 -52 -110 -102 -231 -111 -267 -9 -36
-36 -99 -60 -138 -24 -40 -58 -109 -75 -153 -53 -136 -104 -215 -130 -200 -33
21 -34 56 -39 1025 -6 1081 0 1001 -80 1086 -79 86 -426 302 -785 491 -110 58
-227 125 -260 148 -33 23 -100 62 -150 87 -49 24 -130 71 -180 103 -49 32
-128 75 -175 95 -47 20 -112 56 -145 79 -33 23 -93 58 -132 76 -40 19 -121 65
-180 104 -60 38 -144 85 -188 104 -91 38 -309 177 -325 206 -30 57 -5 88 140
176 252 153 310 189 370 229 36 24 106 67 155 96 50 29 124 79 165 110 41 31
93 67 115 80 22 13 87 54 145 90 58 37 144 85 191 107 47 22 121 65 165 95 43
31 125 79 182 107 57 29 141 80 186 114 139 103 226 161 341 227 61 34 144 86
185 115 87 61 396 252 458 284 40 20 125 74 297 186 42 28 91 59 108 69 18 10
75 47 127 81 52 34 147 92 210 130 63 38 140 85 170 105 30 21 74 47 97 58 22
12 70 44 106 71 35 27 102 68 148 91 46 24 131 73 189 110 58 37 125 79 150
93 25 14 68 46 97 70 28 25 105 73 170 107 65 34 141 80 170 101 28 21 91 63
140 92 48 30 156 96 238 147 299 186 320 195 365 150z m457 -947 c18 -27 35
-8027 18 -8150 -22 -153 -106 -81 -204 172 -27 72 -73 182 -102 245 -28 63
-66 158 -84 210 -51 148 -92 246 -145 344 -27 50 -54 111 -60 136 -6 25 -34
95 -62 155 -51 109 -109 251 -153 375 -12 36 -46 115 -74 175 -29 61 -63 148
-75 195 -30 107 -89 240 -155 349 -28 46 -51 89 -51 95 -3 68 -36 179 -88 291
-33 72 -63 141 -67 155 -16 52 -105 269 -153 372 -28 59 -57 131 -66 160 -8
29 -36 100 -62 158 -108 244 -122 278 -135 330 -37 155 -14 261 124 565 30 66
62 147 71 179 10 33 49 121 87 197 38 76 89 198 113 271 25 73 68 181 96 241
28 59 58 140 66 180 10 42 37 111 66 167 50 96 135 292 158 365 7 22 38 94 70
160 31 67 62 143 69 170 7 27 48 125 91 219 89 195 101 225 129 321 12 39 44
111 72 160 52 92 103 208 134 305 10 30 40 107 68 170 27 63 77 197 112 297
60 173 81 218 128 271 27 29 43 28 64 -5z m-19354 -83 c20 -41 44 -100 53
-130 9 -30 40 -109 69 -175 29 -66 60 -145 70 -175 23 -73 118 -296 165 -390
21 -42 48 -110 60 -150 13 -41 45 -122 72 -180 27 -58 62 -136 78 -175 101
-253 141 -347 168 -401 17 -33 38 -88 46 -121 20 -76 33 -107 111 -268 35 -71
78 -177 95 -234 17 -57 54 -152 82 -210 27 -58 79 -177 114 -264 35 -87 78
-185 95 -218 16 -34 44 -102 60 -152 39 -122 101 -270 159 -387 26 -52 51
-111 55 -130 4 -19 23 -81 41 -137 29 -87 33 -108 25 -140 -19 -75 -90 -270
-126 -348 -45 -96 -105 -241 -146 -350 -17 -44 -52 -132 -79 -195 -27 -63 -69
-169 -93 -235 -25 -66 -70 -178 -101 -249 -31 -71 -70 -175 -87 -230 -17 -56
-59 -159 -94 -231 -74 -152 -98 -210 -115 -285 -7 -30 -33 -95 -57 -143 -41
-83 -103 -234 -160 -392 -14 -38 -45 -106 -69 -150 -23 -44 -56 -118 -73 -165
-16 -47 -46 -121 -66 -165 -43 -94 -155 -369 -155 -381 0 -5 -27 -65 -59 -134
-33 -69 -67 -154 -76 -190 -43 -168 -120 -240 -165 -154 -26 49 -22 8048 3
8088 31 46 56 32 100 -54z m6391 -4421 c50 -22 123 -61 161 -88 39 -26 117
-74 175 -106 58 -32 136 -81 174 -109 38 -28 135 -85 215 -127 80 -42 196
-102 256 -134 61 -32 146 -81 190 -110 44 -29 125 -78 180 -107 55 -30 154
-90 220 -132 66 -43 194 -114 284 -158 90 -44 198 -104 240 -133 42 -28 144
-86 226 -128 83 -42 205 -111 272 -154 67 -43 161 -99 210 -126 204 -110 303
-166 383 -219 47 -31 130 -79 185 -108 55 -29 116 -65 135 -79 19 -14 91 -55
160 -92 143 -74 269 -144 560 -307 113 -63 238 -133 279 -156 81 -45 161 -110
161 -131 0 -53 132 -50 -2415 -53 -2619 -2 -2389 -9 -2427 68 -21 42 -28 2621
-8 2677 25 65 60 67 184 12z m-4330 -575 c27 -10 56 -70 81 -164 14 -49 47
-141 75 -203 28 -61 71 -164 96 -227 25 -63 58 -146 74 -185 82 -198 100 -246
120 -309 11 -38 54 -134 95 -215 40 -80 83 -181 94 -224 12 -43 38 -112 59
-155 22 -42 48 -102 60 -132 12 -30 57 -143 99 -250 130 -326 114 -359 -282
-591 -77 -45 -160 -96 -185 -114 -25 -18 -72 -46 -106 -63 -33 -17 -83 -49
-111 -71 -59 -46 -157 -108 -235 -147 -29 -14 -82 -48 -118 -74 -36 -26 -114
-74 -175 -107 -137 -75 -248 -142 -423 -258 -76 -50 -159 -103 -187 -119 -27
-16 -88 -54 -135 -86 -47 -32 -128 -79 -180 -105 -52 -26 -141 -78 -198 -116
-183 -122 -240 -100 -177 68 14 37 44 120 66 183 22 63 62 153 88 200 79 138
100 185 125 278 13 48 42 132 66 187 58 138 127 319 146 385 8 30 37 93 62
140 63 114 69 130 82 202 6 34 26 91 44 127 52 103 173 383 180 416 4 17 30
70 58 118 51 90 107 224 157 377 16 47 49 134 75 193 26 59 53 140 61 180 11
50 42 126 105 252 52 105 98 213 111 260 20 75 92 233 145 317 24 38 49 47 88
32z m15198 -23 c31 -25 70 -111 98 -216 13 -50 55 -147 110 -256 51 -101 98
-208 109 -252 25 -91 46 -144 100 -256 23 -47 41 -91 41 -99 0 -23 66 -184
141 -344 38 -81 69 -152 69 -158 0 -19 49 -137 123 -295 51 -111 74 -175 88
-245 13 -64 30 -113 54 -155 62 -106 112 -217 150 -330 20 -60 63 -166 95
-235 31 -69 63 -143 70 -165 26 -82 92 -240 140 -334 27 -54 62 -135 78 -182
16 -46 51 -131 77 -189 150 -323 14 -316 -485 25 -58 40 -148 96 -200 125 -52
29 -122 71 -154 93 -33 22 -111 70 -175 107 -64 37 -177 105 -251 150 -74 46
-195 118 -268 162 -73 43 -195 120 -270 170 -128 86 -215 141 -437 276 -49 30
-110 71 -135 92 -25 20 -65 48 -90 60 -135 68 -141 92 -67 266 30 71 60 148
66 170 6 23 34 90 62 150 28 60 69 160 91 223 21 62 72 184 112 270 41 86 83
191 95 234 12 43 41 118 66 167 25 50 56 123 69 163 29 86 46 126 137 317 49
104 73 168 84 225 34 181 141 318 207 266z m-11715 -51 c17 -50 17 -1980 0
-2029 -28 -80 6 -76 -666 -76 -646 0 -621 -2 -642 53 -13 34 21 123 80 207 26
39 81 129 120 200 40 72 89 153 110 180 61 82 148 219 246 390 51 88 117 198
147 245 30 47 71 116 92 155 21 38 65 106 97 150 32 45 82 131 110 191 28 60
66 129 83 154 17 25 47 70 65 100 74 122 133 152 158 80z m10517 -3044 c19 -8
74 -41 123 -73 48 -33 120 -77 158 -98 39 -21 102 -59 140 -85 39 -25 106 -66
150 -89 44 -23 123 -71 175 -105 234 -154 368 -238 635 -396 77 -46 203 -122
280 -170 77 -47 172 -104 210 -125 59 -33 195 -118 336 -212 237 -157 227
-203 -46 -214 -134 -6 -184 -12 -235 -29 -107 -35 -194 -42 -645 -50 -405 -7
-434 -8 -505 -30 -64 -19 -110 -23 -310 -30 -217 -8 -244 -11 -350 -39 -251
-67 -355 -8 -299 169 17 56 31 395 38 975 6 569 6 566 53 599 28 20 49 20 92
2z m-12825 -40 c36 -28 41 -71 41 -324 0 -236 12 -395 41 -530 5 -26 14 -126
20 -222 15 -280 27 -460 35 -532 13 -131 -81 -167 -256 -95 -75 31 -75 31
-340 38 -235 6 -273 9 -335 29 -74 24 -148 29 -770 49 -223 7 -271 12 -335 31
-62 18 -111 23 -282 28 -227 8 -260 17 -243 71 12 37 407 315 525 369 30 14
98 52 150 85 52 33 141 84 196 114 56 29 137 79 182 111 44 31 162 107 262
167 100 61 236 146 303 191 67 44 145 93 172 109 28 15 97 58 155 95 58 37
137 85 175 107 39 22 93 54 121 72 91 58 144 68 183 37z m-1602 -2251 c108
-35 270 -55 447 -55 131 0 165 -4 256 -27 99 -25 124 -27 415 -33 286 -7 315
-9 375 -30 77 -27 221 -37 690 -49 305 -7 305 -7 392 -39 118 -42 353 -161
461 -233 48 -33 132 -83 185 -111 93 -50 162 -92 377 -232 55 -35 150 -93 210
-129 61 -35 142 -84 180 -109 39 -25 99 -60 134 -78 35 -17 122 -69 192 -113
71 -45 200 -122 287 -170 252 -141 380 -253 472 -416 23 -40 62 -99 87 -131
24 -32 68 -97 96 -144 50 -83 77 -122 234 -339 40 -54 92 -131 115 -169 94
-152 291 -443 331 -487 18 -20 64 -88 102 -151 38 -63 119 -182 180 -265 61
-82 141 -199 179 -260 38 -60 81 -126 97 -146 15 -19 49 -71 75 -115 25 -43
70 -108 100 -144 149 -184 73 -206 -181 -53 -55 33 -122 72 -150 86 -27 14
-81 48 -118 75 -37 28 -112 73 -165 100 -54 28 -129 73 -167 102 -39 28 -124
78 -190 112 -66 33 -147 80 -180 104 -34 23 -90 55 -125 70 -36 15 -121 63
-189 107 -68 43 -157 94 -198 114 -41 19 -107 61 -146 92 -113 89 -132 101
-215 130 -42 15 -111 49 -152 77 -41 28 -106 68 -145 89 -71 39 -248 143 -455
268 -63 38 -196 114 -295 169 -99 55 -234 134 -300 176 -66 41 -187 111 -270
154 -155 82 -302 171 -408 247 -34 25 -111 70 -172 101 -60 31 -155 86 -210
121 -55 36 -127 80 -160 99 -33 19 -107 65 -163 102 -57 37 -143 89 -190 114
-163 88 -317 178 -377 222 -33 24 -123 76 -200 114 -77 39 -185 98 -240 133
-55 34 -194 118 -310 187 -115 69 -245 150 -287 180 -43 31 -109 68 -148 83
-39 15 -92 42 -118 61 -148 107 -313 209 -439 272 -174 88 -220 149 -133 179
74 25 438 17 527 -12z m16524 -2 c43 -43 -2 -97 -116 -140 -28 -11 -85 -43
-128 -71 -42 -29 -125 -78 -184 -109 -60 -31 -137 -77 -173 -103 -36 -26 -108
-69 -160 -95 -96 -48 -231 -130 -428 -261 -59 -39 -145 -93 -192 -119 -47 -27
-104 -61 -127 -77 -23 -16 -115 -69 -205 -119 -90 -51 -182 -105 -206 -121
-23 -16 -68 -41 -100 -55 -31 -15 -97 -52 -147 -83 -49 -32 -127 -76 -172 -99
-45 -22 -125 -70 -178 -106 -52 -35 -148 -92 -213 -127 -64 -34 -139 -79 -167
-99 -27 -21 -103 -64 -168 -97 -64 -33 -145 -80 -180 -104 -34 -25 -89 -61
-122 -81 -33 -19 -86 -56 -118 -81 -34 -26 -85 -54 -123 -66 -37 -13 -101 -46
-143 -75 -114 -77 -314 -197 -420 -250 -51 -25 -148 -81 -215 -122 -66 -42
-178 -107 -248 -144 -70 -37 -155 -88 -188 -114 -33 -25 -93 -61 -132 -79 -72
-34 -313 -177 -668 -398 -102 -63 -225 -137 -275 -163 -49 -27 -117 -67 -150
-90 -33 -23 -98 -61 -145 -85 -47 -23 -123 -67 -170 -98 -47 -30 -130 -76
-185 -102 -55 -26 -134 -73 -175 -105 -41 -32 -113 -76 -159 -97 -46 -22 -109
-55 -140 -75 -83 -53 -233 -124 -256 -121 -45 7 28 157 147 301 22 26 58 78
80 115 22 37 53 83 69 103 15 20 66 104 113 187 46 84 106 177 133 208 50 60
170 227 251 353 26 40 68 102 94 137 27 35 73 103 105 151 31 48 77 115 103
148 26 33 87 123 136 200 91 142 185 279 271 394 26 35 59 83 72 105 137 237
232 346 361 417 45 24 131 76 191 114 210 136 285 182 414 255 72 41 146 86
166 102 20 15 82 50 137 77 55 28 139 80 187 116 47 36 133 90 191 120 57 30
134 75 169 101 36 25 100 61 143 79 43 18 170 88 282 155 324 195 319 193 655
202 543 14 693 23 770 48 64 21 97 23 395 30 294 7 332 9 400 30 65 19 109 23
330 29 239 7 262 10 375 39 197 50 493 59 536 15z m-6993 -2546 c5 -22 -69
-153 -148 -262 -31 -44 -87 -133 -124 -198 -36 -65 -79 -135 -95 -156 -16 -20
-52 -74 -80 -119 -27 -45 -74 -112 -104 -149 -30 -38 -122 -174 -205 -303 -82
-129 -172 -266 -200 -305 -27 -38 -61 -93 -75 -122 -15 -28 -49 -78 -76 -111
-58 -70 -162 -225 -198 -297 -160 -316 -257 -354 -394 -152 -34 50 -88 128
-120 172 -31 44 -78 116 -104 160 -26 44 -75 118 -109 165 -35 47 -78 111 -96
144 -54 97 -147 237 -355 537 -220 317 -350 508 -402 589 -26 41 -71 106 -100
145 -101 133 -129 261 -58 259 52 -2 435 -216 684 -383 47 -32 122 -77 166
-101 44 -24 139 -80 210 -125 72 -45 150 -93 174 -105 25 -12 76 -43 114 -68
135 -90 162 -84 488 116 107 66 228 136 269 157 41 21 104 59 140 85 36 26
117 75 180 110 63 34 137 78 164 97 27 20 92 60 145 91 276 160 301 171 309
129z"/>
</g>
  </g>
</svg>
